<svg id="Layer_1" enable-background="new 0 0 511.304 511.304" height="512" viewBox="0 0 511.304 511.304" width="512" xmlns="http://www.w3.org/2000/svg"><path d="m444.505 115.546 28.742-28.242c23.075-22.673 23.239-59.744.363-82.618-6.248-6.248-16.379-6.248-22.627 0-6.249 6.248-6.249 16.379 0 22.627 10.29 10.29 10.218 26.967-.164 37.166l-25.775 25.326c-1.681-1.568-3.405-2.769-4.996-3.684-58.341-80.306-224.225 13.659-287.894 77.329-66.811 66.811-157.134 254.963-84.813 327.28 59.804 59.804 262.834-23.632 325.647-86.447 71.806-71.804 162.652-227.45 71.517-288.737zm-289.723 70.531c44.679-44.679 156.468-112.714 215.717-96.897 7.788 2.078-2.61-2.914-62.549 39.565-38.886 27.558-83.859 65.211-114.574 95.926-46.884 46.883-116.8 138.879-140.734 192.841-1.594-71.432 53.179-182.473 102.14-231.435zm195.579 195.579c-43.62 43.62-153.248 92.066-227.327 97.155 59.045-30.07 144.29-91.303 188.735-135.747 24.589-24.59 61.951-65.964 93.067-108.34 5.23-7.123 3.696-17.137-3.427-22.366s-17.137-3.695-22.366 3.427c-30.085 40.972-67.232 81.982-89.901 104.652-55.096 55.094-178.982 138.667-219.236 145.063 1.1-39.042 87.96-160.065 146.096-218.202 28.355-28.354 70.302-63.638 106.863-89.887 45.991-33.019 67.872-40.961 76.776-42.777 1.225 2.867 2.297 5.959 3.203 9.316 1.311 4.854 4.828 8.811 9.495 10.681 21.038 8.431 33.205 21.997 37.196 41.474 12.52 61.087-54.465 160.842-99.174 205.551z"/></svg>
